<svg width="153" height="116" viewBox="0 0 153 116" fill="none" xmlns="http://www.w3.org/2000/svg">
<path d="M31.744 78H6.208V32.304H31.744V37.36H11.968V51.632H30.592V56.624H11.968V72.944H31.744V78ZM76.5225 61.872C76.5225 65.0293 75.8825 67.888 74.6025 70.448C73.3225 72.9653 71.3598 74.9707 68.7145 76.464C66.1118 77.9147 62.7838 78.64 58.7305 78.64C53.0558 78.64 48.7252 77.104 45.7385 74.032C42.7945 70.9173 41.3225 66.8213 41.3225 61.744V32.304H47.0825V61.936C47.0825 65.648 48.0638 68.528 50.0265 70.576C52.0318 72.624 55.0398 73.648 59.0505 73.648C61.8238 73.648 64.0638 73.1573 65.7705 72.176C67.5198 71.152 68.7998 69.7653 69.6105 68.016C70.4212 66.224 70.8265 64.176 70.8265 61.872V32.304H76.5225V61.872ZM88.583 78V32.304H94.343V72.88H114.311V78H88.583ZM150.05 78H118.37V73.648L142.434 37.424H119.138V32.304H149.41V36.656L125.345 72.88H150.05V78Z" fill="black"/>
<path d="M4.11364 110V92.5455H14.6477V94.4205H6.22727V100.318H14.1023V102.193H6.22727V108.125H14.7841V110H4.11364ZM21.876 102.125V110H19.8647V96.9091H21.8078V98.9545H21.9783C22.2851 98.2898 22.751 97.7557 23.376 97.3523C24.001 96.9432 24.8078 96.7386 25.7965 96.7386C26.6828 96.7386 27.4584 96.9205 28.1232 97.2841C28.788 97.642 29.305 98.1875 29.6743 98.9205C30.0436 99.6477 30.2283 100.568 30.2283 101.682V110H28.2169V101.818C28.2169 100.79 27.9499 99.9886 27.4158 99.4148C26.8817 98.8352 26.1488 98.5455 25.2169 98.5455C24.5749 98.5455 24.001 98.6847 23.4953 98.9631C22.9953 99.2415 22.6005 99.6477 22.3107 100.182C22.0209 100.716 21.876 101.364 21.876 102.125ZM40.8678 115.182C39.8962 115.182 39.061 115.057 38.3621 114.807C37.6633 114.562 37.0809 114.239 36.615 113.835C36.1547 113.438 35.7883 113.011 35.5155 112.557L37.1178 111.432C37.2996 111.67 37.5297 111.943 37.8082 112.25C38.0866 112.562 38.4672 112.832 38.9502 113.06C39.4388 113.293 40.078 113.409 40.8678 113.409C41.9246 113.409 42.7968 113.153 43.4843 112.642C44.1718 112.131 44.5155 111.33 44.5155 110.239V107.58H44.3451C44.1974 107.818 43.9871 108.114 43.7144 108.466C43.4474 108.812 43.061 109.122 42.5553 109.395C42.0553 109.662 41.3792 109.795 40.5269 109.795C39.4701 109.795 38.5212 109.545 37.6803 109.045C36.8451 108.545 36.1832 107.818 35.6945 106.864C35.2116 105.909 34.9701 104.75 34.9701 103.386C34.9701 102.045 35.2059 100.878 35.6775 99.8835C36.1491 98.8835 36.8053 98.1108 37.6462 97.5653C38.4871 97.0142 39.4587 96.7386 40.561 96.7386C41.4133 96.7386 42.0894 96.8807 42.5894 97.1648C43.0951 97.4432 43.4815 97.7614 43.7485 98.1193C44.0212 98.4716 44.2314 98.7614 44.3792 98.9886H44.5837V96.9091H46.5269V110.375C46.5269 111.5 46.2712 112.415 45.7599 113.119C45.2542 113.83 44.5724 114.349 43.7144 114.679C42.8621 115.014 41.9133 115.182 40.8678 115.182ZM40.7996 107.989C41.6064 107.989 42.2883 107.804 42.8451 107.435C43.4019 107.065 43.8252 106.534 44.115 105.841C44.4047 105.148 44.5496 104.318 44.5496 103.352C44.5496 102.409 44.4076 101.577 44.1235 100.855C43.8394 100.134 43.4189 99.5682 42.8621 99.1591C42.3053 98.75 41.6178 98.5455 40.7996 98.5455C39.9474 98.5455 39.2371 98.7614 38.6689 99.1932C38.1064 99.625 37.6832 100.205 37.3991 100.932C37.1207 101.659 36.9814 102.466 36.9814 103.352C36.9814 104.261 37.1235 105.065 37.4076 105.764C37.6974 106.457 38.1235 107.003 38.686 107.401C39.2542 107.793 39.9587 107.989 40.7996 107.989ZM51.8887 110V96.9091H53.9001V110H51.8887ZM52.9114 94.7273C52.5194 94.7273 52.1813 94.5938 51.8972 94.3267C51.6188 94.0597 51.4796 93.7386 51.4796 93.3636C51.4796 92.9886 51.6188 92.6676 51.8972 92.4006C52.1813 92.1335 52.5194 92 52.9114 92C53.3035 92 53.6387 92.1335 53.9171 92.4006C54.2012 92.6676 54.3433 92.9886 54.3433 93.3636C54.3433 93.7386 54.2012 94.0597 53.9171 94.3267C53.6387 94.5938 53.3035 94.7273 52.9114 94.7273ZM61.2754 102.125V110H59.264V96.9091H61.2072V98.9545H61.3777C61.6845 98.2898 62.1504 97.7557 62.7754 97.3523C63.4004 96.9432 64.2072 96.7386 65.1959 96.7386C66.0822 96.7386 66.8578 96.9205 67.5226 97.2841C68.1873 97.642 68.7044 98.1875 69.0737 98.9205C69.443 99.6477 69.6277 100.568 69.6277 101.682V110H67.6163V101.818C67.6163 100.79 67.3493 99.9886 66.8152 99.4148C66.2811 98.8352 65.5481 98.5455 64.6163 98.5455C63.9743 98.5455 63.4004 98.6847 62.8947 98.9631C62.3947 99.2415 61.9998 99.6477 61.7101 100.182C61.4203 100.716 61.2754 101.364 61.2754 102.125ZM80.4717 110.273C79.2104 110.273 78.1223 109.994 77.2075 109.438C76.2984 108.875 75.5967 108.091 75.1024 107.085C74.6138 106.074 74.3695 104.898 74.3695 103.557C74.3695 102.216 74.6138 101.034 75.1024 100.011C75.5967 98.983 76.2842 98.1818 77.1649 97.608C78.0513 97.0284 79.0854 96.7386 80.2672 96.7386C80.949 96.7386 81.6223 96.8523 82.2871 97.0795C82.9518 97.3068 83.557 97.6761 84.1024 98.1875C84.6479 98.6932 85.0825 99.3636 85.4064 100.199C85.7303 101.034 85.8922 102.062 85.8922 103.284V104.136H75.8013V102.398H83.8467C83.8467 101.659 83.699 101 83.4036 100.42C83.1138 99.8409 82.699 99.3835 82.1592 99.0483C81.6251 98.7131 80.9945 98.5455 80.2672 98.5455C79.4661 98.5455 78.7729 98.7443 78.1876 99.142C77.6081 99.5341 77.1621 100.045 76.8496 100.676C76.5371 101.307 76.3808 101.983 76.3808 102.705V103.864C76.3808 104.852 76.5513 105.69 76.8922 106.378C77.2388 107.06 77.7189 107.58 78.3325 107.938C78.9462 108.29 79.6592 108.466 80.4717 108.466C81.0001 108.466 81.4774 108.392 81.9036 108.244C82.3354 108.091 82.7075 107.864 83.02 107.562C83.3325 107.256 83.574 106.875 83.7445 106.42L85.6876 106.966C85.4831 107.625 85.1393 108.205 84.6564 108.705C84.1734 109.199 83.5768 109.585 82.8666 109.864C82.1564 110.136 81.3581 110.273 80.4717 110.273ZM96.1205 110.273C94.8591 110.273 93.7711 109.994 92.8563 109.438C91.9472 108.875 91.2455 108.091 90.7512 107.085C90.2625 106.074 90.0182 104.898 90.0182 103.557C90.0182 102.216 90.2625 101.034 90.7512 100.011C91.2455 98.983 91.933 98.1818 92.8137 97.608C93.7 97.0284 94.7341 96.7386 95.9159 96.7386C96.5978 96.7386 97.2711 96.8523 97.9358 97.0795C98.6006 97.3068 99.2057 97.6761 99.7512 98.1875C100.297 98.6932 100.731 99.3636 101.055 100.199C101.379 101.034 101.541 102.062 101.541 103.284V104.136H91.45V102.398H99.4955C99.4955 101.659 99.3478 101 99.0523 100.42C98.7625 99.8409 98.3478 99.3835 97.808 99.0483C97.2739 98.7131 96.6432 98.5455 95.9159 98.5455C95.1148 98.5455 94.4216 98.7443 93.8364 99.142C93.2568 99.5341 92.8108 100.045 92.4983 100.676C92.1858 101.307 92.0296 101.983 92.0296 102.705V103.864C92.0296 104.852 92.2 105.69 92.5409 106.378C92.8875 107.06 93.3676 107.58 93.9813 107.938C94.5949 108.29 95.308 108.466 96.1205 108.466C96.6489 108.466 97.1262 108.392 97.5523 108.244C97.9841 108.091 98.3563 107.864 98.6688 107.562C98.9813 107.256 99.2228 106.875 99.3932 106.42L101.336 106.966C101.132 107.625 100.788 108.205 100.305 108.705C99.8222 109.199 99.2256 109.585 98.5154 109.864C97.8051 110.136 97.0068 110.273 96.1205 110.273ZM106.281 110V96.9091H108.224V98.8864H108.36C108.599 98.2386 109.031 97.7131 109.656 97.3097C110.281 96.9062 110.985 96.7045 111.769 96.7045C111.917 96.7045 112.102 96.7074 112.323 96.7131C112.545 96.7187 112.712 96.7273 112.826 96.7386V98.7841C112.758 98.767 112.602 98.7415 112.357 98.7074C112.119 98.6676 111.866 98.6477 111.599 98.6477C110.962 98.6477 110.394 98.7812 109.894 99.0483C109.4 99.3097 109.008 99.6733 108.718 100.139C108.434 100.599 108.292 101.125 108.292 101.716V110H106.281ZM116.89 110V96.9091H118.902V110H116.89ZM117.913 94.7273C117.521 94.7273 117.183 94.5938 116.899 94.3267C116.62 94.0597 116.481 93.7386 116.481 93.3636C116.481 92.9886 116.62 92.6676 116.899 92.4006C117.183 92.1335 117.521 92 117.913 92C118.305 92 118.64 92.1335 118.919 92.4006C119.203 92.6676 119.345 92.9886 119.345 93.3636C119.345 93.7386 119.203 94.0597 118.919 94.3267C118.64 94.5938 118.305 94.7273 117.913 94.7273ZM126.277 102.125V110H124.266V96.9091H126.209V98.9545H126.379C126.686 98.2898 127.152 97.7557 127.777 97.3523C128.402 96.9432 129.209 96.7386 130.197 96.7386C131.084 96.7386 131.859 96.9205 132.524 97.2841C133.189 97.642 133.706 98.1875 134.075 98.9205C134.445 99.6477 134.629 100.568 134.629 101.682V110H132.618V101.818C132.618 100.79 132.351 99.9886 131.817 99.4148C131.283 98.8352 130.55 98.5455 129.618 98.5455C128.976 98.5455 128.402 98.6847 127.896 98.9631C127.396 99.2415 127.001 99.6477 126.712 100.182C126.422 100.716 126.277 101.364 126.277 102.125ZM145.269 115.182C144.297 115.182 143.462 115.057 142.763 114.807C142.064 114.562 141.482 114.239 141.016 113.835C140.556 113.438 140.189 113.011 139.916 112.557L141.519 111.432C141.701 111.67 141.931 111.943 142.209 112.25C142.488 112.562 142.868 112.832 143.351 113.06C143.84 113.293 144.479 113.409 145.269 113.409C146.326 113.409 147.198 113.153 147.885 112.642C148.573 112.131 148.916 111.33 148.916 110.239V107.58H148.746C148.598 107.818 148.388 108.114 148.115 108.466C147.848 108.812 147.462 109.122 146.956 109.395C146.456 109.662 145.78 109.795 144.928 109.795C143.871 109.795 142.922 109.545 142.081 109.045C141.246 108.545 140.584 107.818 140.095 106.864C139.613 105.909 139.371 104.75 139.371 103.386C139.371 102.045 139.607 100.878 140.078 99.8835C140.55 98.8835 141.206 98.1108 142.047 97.5653C142.888 97.0142 143.86 96.7386 144.962 96.7386C145.814 96.7386 146.49 96.8807 146.99 97.1648C147.496 97.4432 147.882 97.7614 148.149 98.1193C148.422 98.4716 148.632 98.7614 148.78 98.9886H148.985V96.9091H150.928V110.375C150.928 111.5 150.672 112.415 150.161 113.119C149.655 113.83 148.973 114.349 148.115 114.679C147.263 115.014 146.314 115.182 145.269 115.182ZM145.201 107.989C146.007 107.989 146.689 107.804 147.246 107.435C147.803 107.065 148.226 106.534 148.516 105.841C148.806 105.148 148.951 104.318 148.951 103.352C148.951 102.409 148.809 101.577 148.524 100.855C148.24 100.134 147.82 99.5682 147.263 99.1591C146.706 98.75 146.019 98.5455 145.201 98.5455C144.348 98.5455 143.638 98.7614 143.07 99.1932C142.507 99.625 142.084 100.205 141.8 100.932C141.522 101.659 141.382 102.466 141.382 103.352C141.382 104.261 141.524 105.065 141.809 105.764C142.098 106.457 142.524 107.003 143.087 107.401C143.655 107.793 144.36 107.989 145.201 107.989Z" fill="black"/>
</svg>
